# xmcd
#
# Track frame offsets: 
#        150
#        3040
#        22855
#        28585
#        43255
#        47220
#        66945
#        71657
#        89507
#        100797
#        115335
#        118755
#        132225
#        138532
#        145717
#        146270
#        157482
#        168905
#        178240
#        199735
#        215910
#        223707
#        232960
#
# Disc length: 3265 seconds
#
# Revision: 1
# Processed by: cddbd v1.5.2PL0 Copyright (c) Steve Scherf et al.
# Submitted via: ExactAudioCopy v0.99pb4
#
DISCID=5b0cbf17
DTITLE=Memphis Slim and Roosevelt Sykes - Double-Barreled Boogie
DYEAR=2004
DGENRE=Blues
TTITLE0=Introducing the Grinder Man and the Honeydripper
TTITLE1=Mr Sykes blues
TTITLE2=Roosevelt Sykes meets Memphis Slim in Memphis, Tennessee
TTITLE3=Eagle Rock
TTITLE4=Down on Beale Street, 'The Midway'
TTITLE5=Miss Ida B.
TTITLE6=Talking about Miss Ida B.
TTITLE7=Going down slow
TTITLE8=Going to Chicago, bootlegging and other things
TTITLE9=M and S Boogie
TTITLE10=Talking about the '44 Blues'
TTITLE11=44 Blues
TTITLE12=Improvising new Blues
TTITLE13=Soft and mellow
TTITLE14=Introducing the Churning Man
TTITLE15=The Churning Man
TTITLE16=The life of Piano players in the South in the late 1930's
TTITLE17=47th Street Boogie
TTITLE18=Chicago, the life in the Clubs, Walter Davis
TTITLE19=M&O Blues
TTITLE20=The KMA, hoboing and freight trains
TTITLE21=Roosevelt Daddy's Blues
TTITLE22=Lost my Boogie
EXTD=YEAR: 2004
EXTT0=
EXTT1=
EXTT2=
EXTT3=
EXTT4=
EXTT5=
EXTT6=
EXTT7=
EXTT8=
EXTT9=
EXTT10=
EXTT11=
EXTT12=
EXTT13=
EXTT14=
EXTT15=
EXTT16=
EXTT17=
EXTT18=
EXTT19=
EXTT20=
EXTT21=
EXTT22=
PLAYORDER=
